<?xml version="1.0" standalone="no"?>
<!DOCTYPE svg PUBLIC "-//W3C//DTD SVG 20010904//EN"
 "http://www.w3.org/TR/2001/REC-SVG-20010904/DTD/svg10.dtd">
<svg version="1.0" xmlns="http://www.w3.org/2000/svg"
 width="3840.000000pt" height="2160.000000pt" viewBox="0 0 3840.000000 2160.000000"
 preserveAspectRatio="xMidYMid meet">

<g transform="translate(0.000000,2160.000000) scale(0.100000,-0.100000)"
fill="#000000" stroke="none">
<path d="M25512 16375 c-19 -8 -60 -42 -93 -75 -47 -48 -71 -86 -123 -193 -64
-133 -127 -224 -269 -387 -126 -144 -136 -173 -172 -471 -20 -171 -54 -300
-105 -398 -38 -71 -68 -115 -241 -351 -82 -112 -104 -155 -159 -315 -67 -194
-119 -398 -150 -586 -17 -101 -41 -206 -56 -245 -39 -100 -71 -213 -99 -341
-34 -162 -62 -210 -209 -373 -80 -88 -147 -193 -180 -281 -15 -41 -56 -186
-91 -324 -74 -290 -85 -392 -85 -788 0 -330 -37 -628 -97 -799 -9 -27 -20 -48
-23 -48 -4 0 -6 44 -6 98 1 92 -1 101 -33 162 -18 35 -38 78 -43 95 -8 27 -51
424 -79 735 -6 63 -8 149 -5 190 15 203 18 470 7 517 -14 56 -54 111 -114 154
l-40 29 2 182 c2 216 -6 255 -75 349 -26 34 -50 76 -55 93 -13 44 -11 137 6
338 24 270 6 341 -115 450 -38 33 -74 74 -81 90 -8 20 -10 72 -6 171 7 166 40
340 93 492 137 387 184 552 184 644 0 101 -56 176 -152 202 -84 22 -127 -14
-289 -241 -162 -227 -205 -324 -227 -515 -12 -106 -43 -209 -74 -253 -13 -17
-51 -64 -85 -104 -82 -95 -140 -211 -159 -319 -20 -107 -36 -162 -50 -166 -6
-2 -15 28 -22 74 -14 89 -34 122 -86 142 -33 12 -41 12 -71 -2 -19 -9 -46 -35
-61 -57 -15 -22 -29 -38 -32 -35 -3 3 0 43 7 89 11 74 11 88 -4 119 -27 57
-73 72 -137 44 -46 -19 -89 -77 -143 -192 -85 -179 -125 -353 -125 -541 0 -81
-10 -131 -85 -435 -108 -438 -117 -472 -182 -659 -75 -217 -120 -371 -137
-470 -36 -212 -29 -445 24 -780 35 -220 39 -292 29 -425 -18 -219 -50 -379
-96 -468 -13 -27 -79 -122 -144 -210 -182 -243 -217 -317 -240 -493 -13 -107
-7 -338 12 -426 7 -29 36 -119 66 -201 74 -204 91 -308 75 -476 -6 -70 -25
-192 -42 -272 -35 -165 -35 -176 17 -335 l36 -112 -13 -280 c-25 -526 4 -703
124 -762 92 -44 148 -6 226 155 38 77 53 122 65 194 27 164 93 407 136 498 74
162 84 208 83 383 -1 164 -24 326 -65 464 -38 125 -13 254 88 465 42 86 57
107 153 201 156 152 188 231 169 410 -5 47 -12 162 -15 255 l-6 170 55 275
c31 151 58 311 62 355 17 209 40 372 91 627 73 376 73 388 -12 768 -37 167
-19 309 86 678 63 224 95 306 128 335 20 18 20 18 28 -15 10 -47 8 -192 -6
-376 -19 -240 4 -310 150 -453 74 -72 79 -80 103 -160 29 -93 45 -113 157
-196 39 -29 72 -63 83 -85 22 -45 50 -187 76 -393 25 -197 47 -275 116 -425
89 -193 125 -320 125 -450 0 -64 10 -103 52 -218 l31 -83 -18 -140 c-30 -233
-9 -359 72 -449 45 -50 93 -75 177 -91 66 -12 123 -50 130 -86 3 -15 10 -86
16 -157 20 -240 57 -369 135 -476 85 -115 226 -144 315 -64 61 55 70 96 70
318 0 368 22 476 150 745 112 235 113 244 125 636 10 310 19 344 130 490 149
195 169 223 216 320 98 203 138 415 104 565 -30 135 -35 206 -24 312 17 165
100 601 119 621 4 5 10 -83 12 -195 5 -254 5 -254 156 -410 176 -182 182 -211
103 -447 -28 -81 -59 -188 -70 -238 -11 -50 -38 -139 -61 -197 -52 -133 -63
-207 -55 -371 10 -216 23 -288 78 -450 l52 -150 0 -360 0 -360 28 -105 c65
-240 152 -422 274 -571 102 -126 110 -160 68 -292 -14 -43 -25 -90 -25 -105 0
-15 -9 -73 -20 -130 -50 -257 -11 -391 139 -471 l61 -32 0 -127 c0 -287 30
-348 242 -490 140 -94 143 -98 140 -182 -1 -37 -6 -99 -12 -136 -30 -208 7
-304 117 -304 38 0 51 6 78 33 l33 33 23 -48 c25 -53 70 -104 101 -114 26 -8
99 3 118 19 50 39 63 108 36 197 -15 50 -40 224 -55 375 -12 132 -31 185 -113
318 -118 193 -141 247 -146 346 -3 67 3 119 26 236 39 195 45 258 32 325 -14
76 -48 140 -128 246 -107 141 -108 147 -89 377 22 262 19 282 -73 467 -73 147
-95 221 -95 320 0 83 1 88 62 220 34 74 70 165 82 202 58 192 67 383 26 542
-14 53 -25 109 -25 124 0 15 14 97 31 182 22 109 32 186 33 260 1 117 -2 126
-74 204 -76 84 -89 138 -70 303 13 109 12 117 -8 176 -18 54 -21 82 -20 212 2
174 -10 232 -94 450 -28 71 -54 146 -59 165 -4 19 -9 123 -10 230 -5 494 -32
679 -165 1165 -46 165 -51 251 -30 555 17 261 41 422 81 550 15 47 80 211 145
365 236 559 254 611 248 711 -11 164 -109 250 -226 199z m90 -112 c21 -24 29
-54 30 -111 0 -59 -32 -145 -210 -567 -179 -426 -209 -517 -241 -735 -19 -122
-38 -455 -36 -595 3 -124 6 -143 68 -385 112 -437 126 -527 132 -895 8 -394 6
-380 74 -556 91 -236 95 -256 96 -459 0 -155 2 -179 19 -207 19 -30 19 -39 7
-157 -19 -186 4 -272 97 -368 69 -72 69 -100 1 -464 l-23 -121 28 -114 c15
-63 28 -141 30 -174 7 -154 -32 -327 -114 -505 -80 -174 -85 -192 -83 -295 1
-111 28 -202 113 -376 38 -79 61 -141 66 -175 3 -31 -1 -128 -11 -227 -24
-244 -12 -292 114 -452 33 -42 70 -97 83 -123 33 -66 30 -169 -7 -337 -24
-105 -29 -153 -29 -250 0 -145 16 -194 118 -358 118 -192 133 -231 142 -372 6
-94 36 -284 58 -370 14 -55 12 -75 -10 -75 -16 0 -58 84 -74 148 -28 110 -106
109 -177 -3 -15 -25 -31 -45 -35 -45 -12 0 -9 81 6 214 16 133 14 202 -9 245
-18 35 -71 79 -185 154 -164 107 -172 125 -176 376 -3 211 -3 209 -104 261
-62 31 -94 61 -109 103 -17 43 -13 146 9 259 11 57 20 115 20 130 0 15 12 64
26 110 21 66 25 96 22 150 -6 76 -28 120 -109 217 -108 129 -197 312 -255 526
l-28 100 0 370 -1 370 -43 115 c-67 179 -86 302 -84 546 0 119 1 124 45 235
24 63 55 159 67 214 13 55 42 156 66 225 96 280 80 352 -122 560 -57 58 -108
119 -114 135 -14 38 -21 138 -23 370 -2 164 -5 195 -20 218 -12 19 -26 27 -45
27 -88 0 -151 -135 -216 -461 -71 -353 -81 -492 -47 -647 11 -48 22 -108 24
-134 7 -65 -15 -178 -58 -307 -47 -141 -80 -196 -259 -429 -129 -169 -138
-209 -151 -658 -3 -100 -10 -208 -16 -240 -6 -35 -40 -121 -84 -214 -148 -313
-156 -345 -164 -717 -6 -275 -7 -293 -27 -320 -43 -58 -130 -32 -185 55 -55
87 -81 196 -99 417 -12 148 -22 192 -49 227 -27 33 -124 83 -190 97 -109 23
-146 67 -164 196 -8 56 -7 98 6 197 23 173 22 193 -19 305 -29 79 -38 120 -45
214 -11 140 -41 250 -110 402 -95 210 -99 222 -150 587 -39 276 -61 325 -193
419 l-80 57 -31 89 c-36 107 -42 117 -128 195 -43 40 -76 80 -94 118 -26 53
-28 65 -25 162 1 58 4 114 6 125 2 11 7 81 11 155 12 250 -25 359 -125 362
-42 1 -78 -27 -118 -93 -43 -71 -64 -128 -128 -351 -96 -335 -108 -395 -108
-553 0 -128 3 -155 38 -305 55 -237 54 -293 -12 -620 -52 -259 -74 -404 -91
-610 -5 -63 -33 -227 -62 -365 -46 -223 -52 -266 -54 -395 -2 -83 3 -190 11
-250 30 -235 21 -263 -131 -414 -99 -99 -117 -122 -162 -211 -65 -127 -99
-225 -118 -330 -16 -94 -13 -133 20 -262 53 -204 71 -463 41 -580 -9 -34 -37
-107 -62 -163 -44 -98 -117 -361 -144 -525 -12 -69 -75 -222 -107 -257 -37
-41 -78 32 -93 168 -9 85 -4 438 9 594 11 144 6 195 -34 310 -42 121 -44 155
-15 288 72 329 66 515 -26 769 -76 212 -82 239 -88 401 -7 232 12 337 85 457
18 31 85 125 147 208 63 84 127 178 143 210 65 126 111 389 112 632 1 111 -6
179 -31 330 -44 268 -55 441 -40 626 11 138 30 214 133 529 67 202 122 398
189 675 85 345 96 400 96 480 1 225 70 470 179 630 26 38 26 24 1 -96 -23
-112 -25 -177 -6 -224 13 -30 20 -35 49 -35 39 0 56 16 143 135 l59 80 8 -45
c5 -25 18 -76 30 -115 19 -60 27 -72 56 -87 25 -13 40 -14 60 -7 63 24 97 89
132 254 27 124 84 237 164 324 103 113 144 210 170 406 16 120 27 160 73 251
28 55 210 317 261 375 22 26 23 26 61 12 44 -18 59 -48 54 -103 -10 -85 -60
-251 -178 -585 -97 -274 -135 -650 -78 -761 11 -23 50 -68 85 -100 93 -85 101
-101 103 -203 1 -47 -4 -140 -11 -206 -15 -152 -12 -308 7 -360 8 -22 35 -68
61 -103 63 -86 65 -101 57 -394 -4 -141 0 -152 65 -185 42 -21 75 -53 87 -83
9 -24 12 -225 3 -285 -2 -16 -4 -118 -5 -225 -1 -158 5 -260 34 -544 20 -191
41 -369 47 -395 7 -25 27 -77 46 -116 l35 -70 -7 -106 c-8 -130 5 -172 59
-194 59 -25 110 4 151 86 88 173 131 480 140 1009 3 173 8 340 11 370 10 103
134 560 174 645 42 89 58 113 151 216 148 165 186 235 223 414 24 114 59 232
105 357 11 32 30 117 42 190 34 215 93 442 171 658 44 121 56 143 160 281 269
361 298 435 349 884 14 129 37 178 133 290 125 145 227 285 258 355 60 135 83
172 134 220 57 54 73 59 96 33z"/>
<path d="M2815 15569 c-103 -8 -161 -21 -225 -54 -45 -23 -251 -176 -447 -332
-57 -45 -134 -100 -172 -123 -156 -93 -233 -102 -423 -51 -142 38 -187 39
-275 6 -141 -53 -278 -148 -384 -265 -41 -45 -87 -88 -102 -96 -25 -14 -32
-13 -85 10 -60 27 -71 29 -114 27 -34 -1 -93 -52 -118 -102 -53 -102 -48 -283
10 -404 24 -51 51 -83 126 -152 125 -116 139 -145 138 -283 0 -88 -6 -130 -38
-260 -29 -114 -40 -184 -44 -264 -10 -215 34 -311 244 -542 183 -200 208 -248
207 -389 -1 -68 -10 -124 -37 -229 -43 -165 -47 -243 -14 -301 18 -33 22 -57
23 -135 1 -91 3 -98 40 -170 l40 -75 -4 -100 c-9 -265 -8 -275 25 -345 17 -36
66 -108 108 -160 43 -52 87 -113 98 -134 22 -42 21 -76 -1 -204 -16 -86 -4
-143 70 -349 34 -92 76 -227 94 -299 33 -127 58 -305 51 -355 -2 -13 -7 -53
-11 -88 -3 -35 -20 -103 -36 -150 -62 -176 -63 -179 -49 -238 8 -39 29 -76 77
-141 77 -103 113 -172 153 -291 43 -128 40 -163 -19 -276 -64 -123 -75 -175
-68 -350 6 -167 17 -208 92 -330 39 -63 66 -124 91 -203 39 -124 61 -169 109
-222 57 -63 65 -84 65 -163 0 -41 4 -97 9 -124 7 -35 6 -90 -4 -180 -20 -192
-11 -218 107 -306 130 -97 122 -78 129 -305 6 -219 16 -262 84 -354 49 -67 94
-98 154 -105 43 -5 56 -2 86 18 20 14 46 46 60 73 30 59 32 129 13 352 l-11
141 23 33 c13 19 55 68 92 109 83 93 128 173 135 245 8 78 -2 116 -53 192 -54
83 -73 142 -80 249 -6 75 -3 89 36 210 34 103 43 146 43 205 2 91 -16 135
-122 295 -109 165 -125 199 -125 270 0 52 8 76 62 190 116 245 120 372 22 583
-22 47 -40 90 -40 97 0 7 16 55 36 106 50 131 47 173 -30 338 -97 208 -103
296 -26 373 62 62 71 58 234 -100 101 -99 159 -147 199 -167 55 -26 63 -27
155 -22 53 4 118 9 144 13 47 6 47 6 102 -49 62 -64 145 -186 207 -306 24 -46
67 -108 94 -137 87 -92 157 -91 273 3 30 24 64 43 77 43 16 0 50 -24 98 -69
41 -38 85 -74 97 -81 12 -7 60 -15 106 -20 60 -5 90 -13 105 -26 27 -25 127
-203 155 -278 13 -34 32 -93 43 -132 15 -51 32 -84 61 -117 70 -80 142 -85
295 -22 46 19 95 35 109 35 35 0 64 -42 142 -206 36 -76 79 -167 95 -201 62
-130 205 -235 339 -248 36 -4 75 -13 87 -21 12 -7 54 -78 93 -156 89 -177 166
-294 227 -348 26 -23 98 -73 160 -111 150 -93 230 -155 249 -191 12 -24 14
-48 9 -107 -12 -146 46 -280 236 -546 66 -93 132 -192 146 -220 14 -27 38 -66
54 -86 28 -36 121 -90 211 -124 72 -27 122 -76 184 -183 99 -169 134 -202 215
-202 33 0 47 6 74 33 45 45 52 90 30 191 -10 45 -21 128 -25 186 -14 204 -119
505 -254 734 -53 89 -64 102 -220 270 -116 123 -166 188 -166 215 0 9 -7 69
-15 133 -16 138 -35 186 -109 278 -59 72 -120 119 -195 147 -64 24 -156 79
-202 120 -24 22 -61 79 -104 164 -80 154 -126 206 -213 237 -77 29 -137 73
-160 119 -11 21 -38 103 -61 183 -75 263 -130 344 -326 483 -55 39 -101 71
-103 72 -2 2 -34 73 -72 160 -92 210 -138 285 -229 375 -83 82 -154 123 -244
142 -51 11 -65 10 -132 -10 -42 -12 -80 -20 -85 -17 -6 3 -35 56 -67 117 -64
126 -112 182 -167 192 -48 9 -101 -2 -122 -25 -9 -10 -21 -19 -25 -19 -5 0
-41 64 -80 142 -138 276 -217 358 -343 358 -47 0 -57 4 -76 27 -11 15 -19 34
-18 42 2 9 41 36 86 61 113 62 161 113 222 231 67 131 92 147 257 169 153 20
199 41 291 132 126 125 202 296 248 557 l18 103 53 39 c98 73 134 168 132 349
0 63 0 126 0 140 1 16 30 61 77 120 168 209 197 333 159 677 -17 149 -16 170
22 313 18 69 25 122 26 195 1 143 -20 192 -132 308 l-86 89 2 72 c2 39 6 139
10 221 15 289 -5 364 -124 476 -127 118 -234 140 -389 80 -83 -33 -154 -40
-172 -18 -6 7 -16 56 -22 108 -13 119 -25 165 -55 210 -44 68 -121 83 -302 58
-54 -7 -92 -7 -116 -1 -19 6 -93 47 -164 93 -70 46 -198 115 -283 155 -85 39
-202 99 -260 134 -134 80 -187 104 -280 123 -90 19 -184 24 -305 16z m248
-114 c75 -9 151 -41 282 -118 66 -39 187 -102 268 -139 81 -37 204 -104 273
-148 68 -45 141 -88 162 -97 41 -18 128 -21 238 -8 147 16 167 -1 184 -162 13
-121 23 -153 58 -186 61 -58 135 -62 275 -13 106 37 153 39 211 9 47 -25 142
-127 156 -168 15 -46 17 -198 6 -370 -5 -71 -10 -144 -11 -160 -4 -69 21 -117
109 -207 73 -74 87 -94 102 -144 21 -72 14 -155 -23 -298 -29 -113 -32 -203
-13 -351 35 -273 0 -408 -155 -585 -82 -95 -88 -116 -85 -315 2 -151 -10 -181
-105 -270 l-74 -70 -22 -125 c-38 -222 -99 -371 -198 -482 -70 -79 -127 -103
-279 -122 -100 -13 -183 -47 -227 -93 -14 -16 -49 -72 -77 -126 -55 -107 -86
-138 -200 -201 -87 -47 -127 -82 -145 -123 -16 -40 -10 -55 49 -122 21 -24 38
-47 38 -51 0 -20 67 -38 123 -33 l58 6 52 -54 c39 -41 76 -100 147 -237 52
-101 109 -200 126 -220 l31 -37 38 20 c21 11 47 32 58 48 11 15 28 27 37 27
26 0 77 -72 126 -174 76 -162 98 -174 223 -131 41 14 86 25 100 25 48 0 148
-56 209 -118 76 -76 117 -144 202 -337 38 -87 76 -167 84 -179 8 -13 56 -51
108 -86 197 -135 234 -189 309 -450 23 -80 52 -165 64 -190 37 -72 106 -129
208 -171 75 -30 100 -60 172 -200 79 -155 149 -225 298 -297 58 -29 110 -52
115 -52 18 0 135 -133 153 -175 11 -25 23 -89 29 -161 16 -170 33 -201 211
-389 155 -163 185 -205 265 -364 66 -133 89 -192 121 -306 13 -49 32 -115 40
-145 9 -30 15 -84 15 -120 0 -36 8 -104 19 -152 23 -105 24 -138 5 -138 -20 0
-55 45 -111 141 -90 156 -121 185 -274 250 -109 47 -141 74 -179 147 -17 33
-87 140 -156 238 -185 259 -223 348 -210 495 6 68 4 83 -15 123 -31 64 -107
129 -273 234 -205 130 -245 177 -377 441 -33 65 -72 133 -87 151 -35 41 -93
68 -165 76 -141 15 -215 86 -313 300 -160 349 -206 393 -358 339 -174 -62
-198 -68 -224 -56 -27 12 -52 62 -85 169 -27 90 -126 288 -179 358 -46 61 -88
80 -193 88 -68 5 -70 6 -140 69 -86 76 -127 99 -178 99 -46 -1 -67 -12 -137
-69 -30 -23 -64 -43 -77 -43 -34 0 -80 53 -136 158 -74 139 -144 238 -224 319
-62 63 -77 72 -119 78 -28 5 -78 2 -121 -5 -91 -16 -164 -8 -213 21 -20 13
-97 81 -170 152 -138 134 -183 163 -237 153 -43 -8 -119 -64 -154 -112 -81
-112 -70 -233 43 -478 56 -120 57 -148 11 -260 -19 -47 -35 -99 -35 -117 0
-17 20 -76 45 -129 51 -112 65 -162 65 -240 0 -83 -15 -133 -83 -275 -59 -124
-62 -134 -65 -218 -4 -83 -2 -91 31 -160 19 -39 71 -128 116 -196 44 -68 86
-142 92 -164 14 -53 5 -108 -38 -237 -41 -122 -48 -209 -28 -320 18 -102 38
-153 82 -213 34 -46 38 -58 38 -113 0 -53 -4 -67 -36 -115 -20 -30 -68 -89
-107 -131 -100 -109 -106 -123 -98 -227 16 -213 17 -366 4 -391 -22 -42 -50
-37 -100 19 -67 74 -78 120 -81 342 l-2 186 -29 42 c-16 23 -69 74 -118 112
-58 47 -89 78 -90 92 -2 39 -2 51 7 152 10 118 10 110 2 205 -4 41 -9 105 -12
143 -5 78 -13 95 -72 161 -55 62 -75 100 -102 199 -22 82 -65 175 -112 243
-57 84 -64 114 -64 294 0 164 0 166 29 220 82 153 81 150 80 240 0 65 -7 103
-27 163 -42 121 -92 218 -151 295 -62 80 -86 122 -86 150 0 11 15 60 34 108
105 272 91 510 -55 934 -103 300 -105 308 -89 394 8 39 15 100 15 136 0 83
-20 124 -125 255 -130 161 -150 223 -121 374 22 113 7 206 -51 310 -28 50 -29
58 -23 126 6 65 4 79 -19 132 -36 80 -37 103 -9 208 41 154 54 227 55 315 2
170 -38 246 -244 468 -165 177 -209 265 -210 417 0 88 5 118 57 340 33 142 39
246 21 334 -21 100 -46 140 -141 227 -102 94 -130 134 -151 217 -28 107 -5
256 43 274 9 3 37 -2 62 -11 87 -34 119 -39 151 -26 17 7 74 57 128 112 108
111 184 169 287 221 135 67 159 69 330 23 163 -45 267 -35 409 36 87 44 212
134 410 295 109 89 263 194 305 208 83 27 255 36 384 20z"/>
<path d="M2686 14149 c-22 -5 -55 -19 -75 -31 -38 -23 -160 -117 -201 -156
-43 -40 -146 -111 -186 -128 -46 -19 -155 -22 -234 -5 -53 10 -110 15 -157 12
-30 -2 -80 -46 -104 -93 -23 -45 -49 -169 -49 -232 0 -67 26 -127 91 -207 60
-74 60 -74 53 -124 -11 -80 -13 -313 -3 -394 13 -97 29 -130 83 -164 30 -19
51 -42 66 -75 12 -26 35 -62 51 -80 16 -18 30 -43 31 -55 4 -62 -6 -137 -23
-177 -25 -57 -26 -91 -5 -165 19 -65 60 -112 149 -173 77 -52 86 -88 72 -303
-9 -160 3 -195 91 -259 33 -24 65 -50 72 -59 17 -21 8 -60 -33 -141 -43 -86
-65 -162 -65 -226 0 -88 31 -138 92 -149 43 -8 85 10 143 61 51 45 83 62 132
70 44 7 98 -15 143 -59 68 -64 122 -97 158 -97 45 0 101 28 143 72 156 166
187 192 295 246 59 30 172 63 264 77 117 19 213 83 259 174 29 55 57 179 76
331 9 69 21 141 27 160 14 48 52 96 98 126 28 19 47 44 70 93 24 52 44 77 85
109 80 61 88 82 93 248 5 167 0 189 -71 292 -61 89 -60 111 13 188 98 103 87
135 -130 364 -69 73 -136 148 -149 166 l-25 34 23 65 c28 78 24 113 -22 199
-43 81 -110 153 -154 165 -37 11 -90 -2 -163 -39 -36 -18 -71 -24 -122 -22
-59 4 -129 95 -189 247 -36 92 -80 119 -174 103 -92 -16 -189 -16 -274 -3
-122 20 -221 25 -265 14z m251 -125 c111 -14 147 -15 234 -5 115 13 121 10
140 -47 37 -116 130 -240 208 -279 59 -29 152 -23 235 15 38 18 77 32 87 32
23 0 78 -56 95 -97 18 -41 17 -84 -1 -152 -17 -65 -9 -114 29 -171 25 -38 226
-254 277 -297 45 -39 43 -59 -12 -116 -92 -97 -93 -168 -6 -295 l57 -83 0
-122 c0 -67 -3 -132 -6 -144 -3 -12 -30 -41 -60 -63 -38 -29 -63 -58 -83 -99
-17 -33 -59 -87 -99 -127 -62 -62 -73 -78 -91 -140 -11 -38 -25 -112 -31 -164
-26 -212 -56 -312 -108 -362 -42 -40 -66 -49 -204 -77 -211 -44 -327 -109
-489 -273 -58 -60 -112 -108 -120 -108 -8 0 -44 25 -79 55 -90 76 -141 100
-215 100 -69 -1 -128 -25 -206 -87 -31 -24 -56 -37 -66 -34 -26 10 -8 90 48
207 79 169 69 249 -43 318 -32 20 -61 45 -65 56 -4 11 -8 99 -8 195 0 172 -1
176 -28 232 -24 49 -40 66 -105 110 -62 43 -79 61 -90 92 -17 54 -16 73 7 136
14 38 20 80 21 135 0 83 -5 98 -65 195 -11 17 -32 51 -47 75 -15 24 -45 55
-67 69 -31 20 -42 34 -48 63 -10 47 -9 336 2 419 8 71 0 93 -69 174 -78 91
-89 136 -65 266 20 112 31 117 204 88 178 -30 273 1 458 153 164 133 221 171
264 175 44 4 38 4 210 -18z"/>
<path d="M34058 13994 c-65 -35 -79 -124 -48 -309 18 -111 21 -164 19 -370 -2
-132 -7 -245 -12 -252 -4 -6 -21 -15 -37 -18 -41 -9 -79 -64 -91 -132 -7 -34
-9 -124 -6 -218 4 -139 9 -174 36 -269 30 -106 30 -116 32 -340 4 -380 15
-581 37 -666 11 -41 47 -143 80 -226 80 -200 92 -265 106 -581 5 -103 23 -150
82 -208 41 -41 71 -55 120 -55 21 0 34 -5 34 -13 0 -21 -58 -284 -81 -365 -12
-42 -49 -156 -84 -252 -98 -278 -100 -290 -79 -524 l10 -109 -36 -23 c-49 -32
-242 -105 -422 -159 -154 -47 -236 -81 -275 -114 -65 -55 -84 -155 -39 -208
13 -16 36 -35 50 -42 25 -14 24 -15 -92 -85 -163 -99 -255 -171 -359 -280
-106 -110 -143 -176 -143 -253 0 -44 8 -69 50 -148 28 -52 50 -102 50 -111 0
-46 -173 -235 -349 -382 -220 -184 -248 -215 -277 -313 -14 -45 -19 -51 -82
-84 -141 -74 -208 -142 -298 -305 -63 -114 -116 -161 -270 -244 -290 -156
-340 -192 -658 -474 -219 -195 -239 -216 -299 -314 -76 -126 -82 -210 -20
-279 44 -49 95 -64 164 -50 72 16 105 36 184 111 39 36 95 86 125 110 30 25
109 97 175 160 138 132 238 203 333 235 37 13 157 42 267 65 236 48 312 71
381 116 117 74 277 223 442 409 162 184 210 231 307 304 109 82 147 127 190
229 34 82 135 257 207 359 24 34 106 133 184 220 77 87 150 172 161 188 12 17
36 79 52 138 17 60 40 125 50 145 43 84 159 188 361 322 210 140 514 367 563
420 33 35 72 96 104 162 46 92 64 115 140 189 126 121 234 190 375 239 64 21
142 51 174 65 143 63 336 223 417 345 21 30 51 95 69 144 31 86 34 90 97 138
36 27 126 78 199 114 170 84 295 167 391 258 51 49 117 96 201 145 249 146
317 199 687 545 249 232 268 254 268 317 0 55 -20 83 -80 110 -64 29 -104 24
-197 -25 -46 -24 -144 -69 -218 -101 -223 -95 -259 -117 -392 -243 -131 -124
-197 -171 -354 -251 -61 -31 -133 -79 -184 -122 -104 -87 -125 -98 -275 -139
-83 -23 -157 -53 -243 -97 -104 -54 -147 -70 -270 -99 -80 -19 -164 -43 -187
-53 -59 -26 -110 -74 -167 -159 -27 -40 -52 -72 -54 -70 -2 3 8 43 22 89 52
173 23 289 -116 460 -62 77 -68 89 -74 144 -9 83 -12 90 -69 175 l-49 75 6
246 c8 321 -18 629 -61 712 -8 18 -56 73 -104 123 l-89 90 -49 140 c-27 76
-71 196 -99 266 -37 92 -56 154 -66 227 -19 127 -39 203 -78 300 -16 42 -52
140 -79 218 -43 126 -213 488 -251 533 -40 49 -91 61 -140 34z m166 -317 c52
-106 108 -237 126 -292 18 -55 52 -151 77 -212 32 -84 50 -150 68 -259 20
-120 34 -170 81 -287 31 -78 74 -193 95 -256 49 -145 73 -185 158 -261 38 -34
76 -76 85 -94 8 -17 22 -80 32 -141 15 -91 18 -166 16 -440 -1 -186 3 -346 8
-366 6 -20 25 -56 43 -80 49 -64 64 -98 66 -153 3 -68 18 -99 91 -186 81 -95
124 -186 123 -255 -2 -68 -54 -232 -103 -320 -46 -83 -50 -117 -18 -139 33
-23 58 -20 114 15 73 47 148 124 212 219 69 102 96 119 247 155 166 40 230 63
340 121 68 36 145 66 238 92 149 43 190 65 307 166 38 33 113 81 180 115 144
75 231 136 345 246 119 116 148 134 325 210 83 36 190 85 238 110 85 45 106
51 136 39 22 -8 5 -37 -53 -93 -185 -178 -444 -415 -506 -462 -16 -13 -36 -30
-44 -37 -36 -35 -125 -95 -226 -152 -138 -79 -215 -133 -285 -202 -76 -75
-183 -145 -338 -221 -134 -66 -257 -145 -304 -194 -15 -16 -43 -70 -62 -121
-54 -142 -123 -229 -266 -336 -86 -64 -159 -100 -317 -156 -173 -61 -278 -125
-410 -251 -92 -86 -138 -147 -184 -243 -24 -48 -60 -107 -80 -130 -37 -42
-356 -277 -564 -416 -217 -145 -334 -255 -386 -365 -15 -31 -39 -100 -54 -154
l-27 -99 -155 -173 c-194 -219 -339 -434 -417 -621 -33 -77 -77 -126 -191
-208 -44 -32 -105 -86 -135 -121 -177 -203 -230 -261 -299 -329 -163 -162
-279 -250 -364 -275 -45 -14 -279 -64 -364 -79 -62 -11 -206 -57 -252 -81 -73
-36 -196 -133 -291 -227 -47 -46 -116 -111 -155 -143 -38 -33 -97 -85 -130
-115 -75 -71 -101 -87 -146 -94 -154 -23 -48 198 191 399 54 45 200 175 245
218 22 20 74 62 115 93 72 54 122 84 377 224 147 81 201 134 273 265 70 127
144 203 261 267 47 26 91 53 97 61 6 7 18 38 26 69 18 69 33 93 87 137 23 19
47 40 53 45 17 16 76 66 132 111 142 114 336 334 361 410 14 42 -4 106 -51
183 -70 116 -59 165 66 292 110 113 179 165 363 275 153 92 171 107 179 147 9
43 -9 67 -70 94 -123 54 -69 105 197 183 145 42 366 124 448 165 74 38 86 62
84 166 -1 47 -7 122 -14 167 -15 104 -9 135 77 378 94 270 153 495 169 656 7
64 6 68 -22 99 -26 29 -35 33 -80 32 -54 -2 -92 19 -114 60 -6 12 -13 73 -15
137 -9 247 -38 393 -111 571 -58 138 -83 220 -93 299 -6 40 -12 236 -16 435
l-6 361 -31 115 c-26 99 -31 137 -35 270 -5 193 1 219 52 237 47 16 65 30 77
60 4 12 11 136 15 276 6 235 5 267 -16 410 -22 148 -22 196 0 182 6 -4 53 -93
104 -198z"/>
<path d="M6165 13949 c-52 -12 -127 -62 -160 -104 -70 -93 -83 -187 -39 -290
52 -123 54 -99 -29 -273 -91 -190 -97 -208 -97 -288 0 -128 76 -244 183 -281
40 -14 59 -30 94 -74 60 -76 121 -109 203 -109 85 0 133 16 186 63 79 70 101
133 114 333 8 108 17 163 40 240 40 133 47 196 26 267 -29 101 -114 160 -196
137 -19 -6 -38 -10 -43 -10 -4 0 -5 46 -1 103 12 179 -31 261 -148 287 -57 12
-78 11 -133 -1z m146 -119 c26 -14 32 -60 24 -190 -9 -142 2 -172 64 -191 32
-9 47 -9 85 4 45 15 47 15 71 -6 41 -35 44 -103 10 -218 -41 -141 -44 -155
-50 -274 -13 -245 -55 -315 -189 -315 -60 0 -60 0 -107 53 -77 86 -92 98 -148
120 -35 14 -65 36 -85 60 -29 36 -31 44 -31 121 l0 83 80 162 c94 191 97 214
46 326 -48 105 -42 163 26 227 56 54 144 70 204 38z"/>
<path d="M10821 13825 c-18 -9 -61 -44 -95 -79 l-61 -65 -72 36 c-69 34 -74
35 -120 24 -26 -7 -56 -20 -67 -29 -29 -27 -55 -85 -64 -147 -10 -64 -9 -85
16 -230 12 -75 16 -163 17 -355 0 -246 -1 -261 -33 -435 -44 -241 -79 -381
-157 -625 -76 -242 -81 -262 -99 -448 -12 -116 -19 -152 -40 -191 -67 -130
-139 -337 -161 -464 -13 -80 44 -195 116 -233 36 -18 82 -18 119 1 25 13 176
178 252 275 31 40 58 36 58 -10 0 -17 -16 -72 -36 -123 -32 -81 -38 -107 -44
-217 -12 -189 -51 -400 -84 -442 -52 -69 -84 -186 -66 -247 5 -18 26 -58 46
-87 l37 -53 -7 -83 c-9 -115 -30 -256 -65 -438 -17 -85 -37 -209 -46 -274 -11
-81 -27 -147 -49 -206 -72 -186 -118 -385 -118 -511 0 -80 12 -117 57 -178 14
-19 25 -48 25 -65 0 -78 75 -145 147 -131 47 9 93 57 118 121 10 27 26 61 37
76 31 45 56 110 78 201 11 48 42 132 69 189 73 151 105 274 172 658 57 330 74
427 85 478 5 23 7 23 68 17 82 -9 124 10 177 81 22 29 47 55 55 58 24 9 50
-27 73 -100 29 -91 57 -130 109 -155 56 -28 75 -55 170 -244 89 -177 102 -215
133 -389 33 -189 45 -212 174 -346 132 -135 159 -182 230 -400 57 -174 80
-222 190 -389 46 -70 89 -140 95 -155 5 -15 23 -93 40 -173 16 -80 38 -160 48
-177 26 -45 31 -67 42 -222 11 -164 31 -216 95 -251 51 -29 91 -29 145 0 60
31 86 83 95 186 l7 81 30 -22 c43 -30 114 -35 154 -10 53 34 67 80 61 201 -7
142 -25 215 -119 474 -136 376 -176 536 -232 922 -37 262 -52 313 -120 420
-140 219 -151 247 -166 390 -13 128 -37 198 -91 258 -49 57 -118 91 -234 116
-49 11 -102 24 -117 30 -45 17 -103 77 -169 174 -34 51 -99 139 -144 197 -105
134 -152 208 -175 275 -24 70 -33 86 -80 140 -61 70 -93 140 -87 187 7 52 53
145 82 164 12 8 62 26 111 39 95 26 214 82 372 175 186 110 256 196 323 397
56 169 107 269 160 318 24 22 98 72 164 109 239 137 318 210 404 375 41 76 66
112 100 139 25 20 80 71 121 112 41 41 98 88 125 104 119 70 162 129 152 212
-11 105 -111 147 -261 108 -156 -40 -490 -256 -694 -448 -72 -69 -156 -141
-185 -160 -30 -20 -93 -79 -141 -131 -129 -140 -142 -148 -243 -156 -114 -9
-185 -45 -300 -152 -160 -149 -226 -193 -355 -237 -37 -13 -89 -40 -116 -61
l-49 -37 -11 37 c-6 20 -16 67 -22 104 -11 69 -11 69 29 155 58 126 73 196 75
342 l1 125 -35 60 c-34 59 -34 63 -40 205 -5 123 -11 159 -35 231 l-28 86 26
74 c14 41 44 126 66 189 55 155 67 248 53 390 -16 159 -48 225 -127 261 -48
22 -98 23 -144 4z m117 -115 c28 -26 40 -74 48 -191 9 -124 -9 -211 -82 -403
-70 -186 -74 -219 -39 -310 26 -70 31 -109 39 -288 4 -90 7 -102 36 -148 27
-42 32 -60 34 -122 6 -141 -8 -218 -59 -330 -53 -114 -57 -148 -36 -280 7 -43
12 -104 13 -135 0 -66 13 -109 35 -117 20 -8 82 29 157 93 38 32 85 60 130 77
152 58 226 105 347 221 137 132 194 163 303 163 96 0 142 33 342 245 16 17 52
46 79 65 28 19 67 50 89 70 21 19 50 46 65 59 14 13 60 56 102 96 125 119 441
320 560 356 87 27 143 23 147 -9 5 -30 -26 -63 -92 -101 -28 -16 -115 -88
-192 -160 -133 -125 -145 -138 -195 -234 -81 -153 -144 -210 -377 -343 -167
-95 -208 -133 -269 -249 -28 -54 -68 -149 -88 -212 -42 -125 -62 -169 -108
-227 -67 -85 -373 -255 -542 -302 -122 -34 -159 -64 -213 -172 -65 -132 -48
-235 58 -367 22 -27 51 -75 65 -105 59 -127 80 -163 160 -266 46 -60 125 -168
175 -241 129 -187 178 -223 360 -263 178 -40 221 -87 240 -266 18 -170 38
-220 151 -395 38 -58 78 -132 89 -163 11 -32 31 -142 45 -245 52 -381 96 -555
244 -974 44 -124 87 -263 96 -308 16 -87 22 -200 10 -218 -23 -38 -92 33 -136
140 -35 89 -64 118 -98 99 -28 -15 -35 -50 -25 -129 5 -36 9 -123 9 -194 -1
-115 -3 -129 -21 -148 -24 -23 -68 -18 -79 9 -4 10 -11 73 -16 142 -11 148
-22 207 -49 261 -11 22 -32 95 -45 162 -36 176 -47 202 -147 354 -114 175
-128 202 -174 348 -76 244 -117 317 -253 450 -50 49 -100 108 -111 131 -11 22
-31 103 -45 180 -30 172 -49 228 -135 402 -94 190 -139 255 -197 283 -47 23
-55 34 -98 153 -39 106 -117 153 -201 121 -26 -10 -53 -30 -65 -48 -57 -83
-92 -102 -140 -76 -63 33 -129 -8 -154 -96 -8 -27 -42 -210 -75 -405 -84 -495
-115 -612 -195 -756 -22 -38 -44 -102 -60 -170 -16 -69 -37 -130 -58 -164 -17
-30 -41 -77 -52 -105 -12 -27 -25 -49 -31 -48 -5 1 -17 28 -27 60 -10 33 -31
74 -47 92 -17 18 -31 42 -31 54 -1 12 -2 37 -4 56 -6 80 53 323 117 481 21 55
37 126 58 265 16 105 38 235 49 290 29 139 59 378 57 450 -1 52 -7 70 -44 132
-51 84 -50 109 5 200 19 32 39 69 45 83 19 48 61 316 67 430 5 80 13 134 29
177 31 87 47 189 38 247 -9 60 -50 106 -94 106 -43 0 -89 -40 -223 -195 -66
-77 -127 -144 -135 -148 -21 -12 -61 20 -74 58 -21 63 38 273 125 447 50 99
60 137 69 273 10 132 23 195 72 347 105 328 130 426 186 733 31 172 33 190 33
425 -1 186 -5 273 -19 360 -30 194 -27 256 15 292 24 20 52 11 109 -34 37 -30
77 -36 113 -16 12 6 54 44 92 85 76 79 103 90 143 53z"/>
<path d="M32465 13427 c-90 -44 -167 -138 -205 -252 -11 -34 -37 -89 -57 -121
-19 -33 -52 -95 -73 -139 -21 -44 -58 -114 -84 -155 -77 -124 -95 -187 -120
-427 -12 -115 -19 -142 -61 -244 -69 -168 -75 -196 -83 -389 -8 -165 -10 -178
-36 -230 -75 -144 -80 -169 -79 -355 2 -170 -5 -223 -33 -246 -8 -7 -60 -16
-114 -20 -108 -8 -169 -29 -232 -80 -50 -40 -78 -49 -151 -49 -98 -1 -171 -40
-208 -112 -25 -49 -24 -94 4 -143 44 -77 129 -115 259 -115 52 0 84 -5 108
-18 306 -163 310 -165 374 -157 l59 6 -7 -33 c-3 -18 -30 -82 -58 -142 -50
-106 -52 -112 -55 -215 -4 -98 -7 -112 -40 -177 -63 -128 -56 -206 38 -426
l32 -77 -26 -58 c-66 -147 -74 -311 -21 -433 27 -63 28 -72 32 -272 4 -220 5
-210 -53 -453 -36 -149 -45 -230 -46 -409 -1 -224 23 -341 92 -436 48 -66 106
-81 166 -42 25 15 57 92 68 162 4 25 33 126 65 225 87 268 100 324 111 485 5
80 16 201 24 270 8 69 19 197 25 285 16 243 28 293 85 370 67 89 93 320 55
490 -18 79 -14 118 18 202 17 44 36 102 42 128 14 63 14 208 -1 372 l-12 136
23 19 c12 10 32 18 45 18 25 0 80 -35 137 -86 68 -61 108 -75 253 -86 112 -8
142 -7 194 6 35 9 72 16 84 16 12 0 66 -30 121 -65 126 -83 207 -110 331 -110
108 0 142 16 173 81 20 40 20 46 7 78 -8 20 -15 38 -15 40 0 3 21 14 47 26 71
31 113 68 135 116 48 109 -41 220 -230 288 -40 14 -92 26 -115 26 -65 1 -117
16 -134 40 -59 84 -207 150 -336 150 -38 0 -125 -18 -168 -35 -13 -5 -18 3
-23 36 -8 52 -56 103 -111 118 -56 15 -141 14 -256 -5 -54 -8 -113 -14 -131
-12 -31 3 -33 5 -32 39 1 20 29 111 62 202 77 207 167 554 181 701 9 86 18
126 47 195 71 169 78 197 78 316 1 132 -10 159 -103 252 -89 88 -87 96 59 338
132 218 181 334 182 430 1 72 -17 113 -69 152 -31 24 -47 28 -112 31 -64 2
-84 -1 -126 -21z m157 -99 c25 -7 40 -19 44 -32 15 -60 -44 -196 -182 -426
-157 -261 -160 -315 -29 -450 72 -76 81 -101 72 -214 -4 -54 -18 -102 -57
-200 -34 -82 -56 -154 -62 -200 -5 -39 -13 -105 -19 -146 -15 -116 -103 -431
-171 -612 -51 -134 -62 -174 -62 -226 -1 -61 1 -65 36 -97 50 -46 90 -52 228
-32 132 20 207 21 246 7 27 -11 27 -11 21 -85 -5 -64 -3 -78 15 -100 10 -14
24 -25 30 -25 6 0 47 19 92 42 77 41 85 43 166 42 114 -1 186 -28 238 -91 50
-61 91 -80 203 -92 151 -17 293 -100 274 -160 -4 -14 -33 -33 -83 -57 -129
-59 -127 -57 -130 -106 -2 -34 2 -48 18 -63 28 -25 25 -32 -14 -45 -69 -22
-210 17 -312 87 -87 59 -160 92 -192 87 -14 -3 -50 -11 -82 -18 -81 -19 -268
-8 -320 19 -16 8 -53 36 -82 62 -183 162 -366 84 -344 -147 31 -321 27 -378
-30 -519 -40 -99 -43 -136 -19 -271 19 -106 15 -243 -8 -321 -8 -26 -29 -68
-47 -94 -53 -77 -70 -149 -86 -365 -8 -107 -21 -252 -29 -322 -8 -70 -17 -181
-20 -245 -7 -139 -33 -253 -110 -485 -30 -90 -59 -195 -64 -233 -12 -83 -25
-100 -50 -66 -47 61 -70 209 -65 401 5 146 16 218 62 405 l37 150 0 235 0 235
-32 92 c-49 137 -43 245 21 383 14 30 26 68 26 83 0 15 -17 69 -39 120 -84
200 -88 241 -30 349 31 58 34 72 39 178 5 114 6 116 60 230 51 106 55 120 55
187 0 56 -4 77 -20 99 -31 40 -53 45 -119 22 l-57 -20 -92 47 c-51 26 -123 66
-160 88 -66 38 -72 40 -184 47 -114 7 -115 8 -150 42 -31 31 -33 37 -22 60 16
36 49 48 130 48 79 0 125 16 175 60 58 50 92 63 189 67 130 7 160 17 195 64
52 72 60 116 57 304 l-2 170 55 120 54 120 7 175 c7 190 10 202 93 401 30 73
38 107 51 231 22 213 42 277 123 412 38 63 72 126 76 141 4 15 27 61 53 102
25 42 54 101 65 131 29 84 63 144 100 179 54 52 98 63 170 41z"/>
<path d="M29117 12776 c-55 -15 -91 -45 -119 -101 -19 -37 -20 -51 -14 -182 5
-119 3 -157 -14 -243 -14 -69 -20 -142 -20 -230 0 -72 -7 -162 -15 -207 -18
-96 -18 -141 0 -218 8 -33 15 -105 15 -161 0 -86 -6 -123 -42 -260 -38 -147
-41 -169 -42 -294 -1 -128 1 -138 26 -190 33 -67 64 -98 142 -142 49 -27 61
-39 69 -68 19 -72 5 -138 -58 -270 -60 -124 -60 -126 -60 -215 1 -86 2 -94 49
-194 27 -57 51 -123 53 -145 3 -26 -7 -94 -27 -181 -38 -161 -42 -274 -16
-393 19 -89 20 -137 1 -267 -27 -184 -17 -256 44 -316 75 -75 196 -74 271 1
62 62 81 138 89 355 7 180 7 180 45 270 21 50 55 131 74 180 l36 90 4 245 c3
158 0 284 -8 356 -10 89 -10 121 0 165 22 95 54 137 64 87 3 -13 7 -129 9
-258 3 -269 9 -294 88 -365 140 -126 256 -274 392 -500 20 -33 79 -107 131
-163 125 -137 129 -147 131 -377 l2 -180 48 -120 c56 -140 67 -180 94 -335 24
-138 69 -236 140 -309 59 -60 98 -81 166 -88 73 -8 137 23 176 85 26 41 29 55
29 128 0 123 -13 169 -99 356 -43 95 -84 193 -91 218 -11 39 -8 289 5 480 4
72 -16 225 -41 298 -27 82 -72 167 -175 327 -71 111 -68 94 -60 310 6 135 -24
207 -148 364 -109 136 -179 203 -256 242 -47 25 -69 43 -81 67 -25 54 -13 68
111 126 120 57 183 96 255 159 59 51 79 61 191 92 52 14 118 41 148 58 78 47
209 189 256 278 35 66 39 83 43 161 9 174 -28 289 -130 416 -39 48 -86 119
-104 159 -18 39 -49 89 -68 111 -36 39 -36 40 -22 78 8 22 24 57 35 79 46 87
19 189 -72 270 -94 86 -154 101 -299 80 -127 -19 -185 -9 -312 55 -66 33 -111
50 -136 50 -57 0 -153 -53 -204 -113 -25 -29 -73 -85 -108 -125 -135 -155
-160 -190 -199 -267 -22 -44 -44 -84 -48 -88 -4 -4 -18 18 -31 50 -18 48 -24
88 -31 228 -11 208 -25 322 -44 369 -23 54 -82 114 -123 126 -45 12 -55 12
-115 -4z m124 -140 c28 -46 38 -114 44 -311 7 -188 16 -254 41 -293 10 -16 17
-56 20 -119 5 -118 8 -128 44 -143 59 -25 78 -2 187 220 43 88 79 146 122 195
34 39 87 101 119 139 83 101 132 145 175 158 36 11 43 9 140 -40 144 -73 202
-81 376 -53 90 14 169 -17 216 -87 34 -49 31 -81 -10 -159 -51 -97 -47 -139
21 -215 18 -20 48 -70 67 -110 18 -40 66 -113 105 -162 85 -105 102 -150 109
-294 6 -100 5 -104 -27 -168 -37 -75 -162 -210 -225 -241 -22 -11 -83 -33
-135 -47 -97 -28 -155 -59 -225 -121 -54 -49 -137 -98 -226 -136 -127 -54
-171 -100 -171 -183 1 -86 46 -152 133 -197 77 -38 129 -86 231 -213 112 -140
133 -187 128 -296 -10 -251 -15 -230 103 -414 84 -131 140 -249 158 -331 9
-41 12 -119 10 -245 -8 -405 -7 -432 13 -490 10 -30 49 -120 86 -200 79 -168
88 -199 92 -298 3 -70 2 -75 -25 -98 -47 -40 -103 -28 -163 38 -66 71 -84 117
-114 285 -23 134 -36 177 -93 318 l-41 100 2 142 c4 242 -22 319 -159 464 -43
46 -104 125 -136 174 -150 241 -254 375 -348 455 -42 36 -82 76 -87 90 -6 14
-12 117 -14 230 -5 315 -15 364 -80 395 -96 45 -172 -26 -211 -197 -14 -61
-14 -85 -4 -167 7 -53 12 -199 13 -326 2 -258 -1 -275 -74 -438 -76 -173 -80
-188 -84 -357 -7 -239 -27 -309 -94 -329 -33 -10 -45 -9 -69 4 -43 22 -48 63
-28 225 21 167 21 209 1 302 -25 116 -21 213 16 373 42 181 39 214 -30 369
-52 117 -61 163 -45 219 4 12 33 76 64 142 l56 120 0 100 c-1 88 -4 105 -25
144 -16 27 -40 52 -65 65 -84 45 -104 60 -127 100 -21 37 -23 53 -23 156 1
102 6 134 43 281 50 195 58 320 26 453 -17 73 -17 82 -1 184 10 59 17 163 17
232 1 82 7 155 19 214 18 83 21 242 7 313 -7 32 12 91 32 102 9 6 37 10 61 9
37 -1 46 -6 62 -32z"/>
<path d="M29981 11919 c-100 -39 -192 -149 -252 -301 -27 -69 -63 -106 -117
-120 -107 -27 -175 -191 -124 -300 9 -20 58 -79 107 -130 62 -65 102 -117 129
-168 70 -134 102 -163 178 -162 109 2 298 193 354 358 24 74 24 135 -1 269 -8
44 -16 104 -17 134 -2 52 -1 54 47 99 28 26 78 68 112 94 79 60 100 97 84 149
-23 77 -82 97 -293 98 -132 0 -160 -2 -207 -20z m342 -95 c20 -4 37 -12 37
-18 0 -6 -39 -40 -86 -75 -113 -83 -144 -131 -144 -219 0 -35 9 -119 21 -185
25 -146 19 -194 -40 -284 -45 -70 -142 -167 -183 -184 -42 -17 -56 -6 -103 83
-49 92 -75 127 -171 226 -66 68 -74 80 -74 115 0 62 22 93 81 112 74 25 128
82 168 180 58 140 109 203 193 240 35 15 229 20 301 9z"/>
<path d="M27382 12274 c-73 -19 -162 -65 -231 -118 -96 -74 -293 -312 -347
-419 -25 -49 -37 -58 -179 -149 -175 -111 -267 -247 -305 -453 -12 -60 -26
-134 -31 -163 -8 -40 -26 -72 -76 -140 -80 -106 -120 -188 -134 -273 -19 -117
4 -202 89 -333 88 -134 124 -300 102 -475 -15 -120 -15 -449 0 -516 31 -137
118 -204 251 -191 88 9 121 -1 220 -69 43 -29 94 -58 115 -65 118 -36 123 -39
151 -102 34 -76 88 -123 158 -138 62 -13 109 -4 222 41 75 30 81 31 155 21 45
-5 96 -6 122 -1 154 28 438 253 581 458 32 46 84 111 115 145 109 119 192 250
230 366 30 89 31 222 2 303 -23 64 -152 270 -218 347 -94 110 -97 190 -15 375
100 223 100 227 101 427 0 208 -8 252 -65 375 -24 51 -46 115 -50 145 -10 83
-34 158 -65 202 -40 59 -239 249 -280 268 -19 9 -80 37 -135 63 -55 25 -136
55 -180 66 -95 22 -226 24 -303 3z m325 -123 c33 -11 109 -44 169 -72 102 -49
116 -59 212 -158 57 -58 110 -117 117 -132 8 -14 21 -68 30 -120 11 -63 27
-115 50 -159 55 -109 66 -160 67 -337 1 -87 -2 -173 -7 -192 -4 -19 -32 -89
-62 -155 -29 -67 -63 -150 -73 -185 -39 -125 -17 -239 65 -340 58 -72 191
-273 210 -316 62 -151 -15 -373 -199 -570 -31 -33 -85 -101 -122 -152 -70 -99
-195 -227 -287 -296 -141 -105 -232 -143 -303 -126 -75 17 -131 10 -225 -27
-158 -61 -197 -51 -256 63 -21 41 -47 80 -59 88 -11 7 -53 23 -92 34 -42 13
-99 40 -136 66 -124 85 -139 90 -258 90 -99 0 -108 2 -132 24 -15 14 -31 42
-37 63 -20 75 -17 331 5 572 13 132 -41 349 -114 456 -72 106 -84 138 -84 220
1 101 27 164 114 274 78 98 87 121 119 306 11 64 27 136 36 160 39 110 138
216 283 301 95 56 118 78 161 154 53 92 153 219 250 315 146 145 234 183 402
176 59 -3 120 -13 156 -25z"/>
<path d="M27233 11481 c-95 -45 -184 -146 -225 -255 -16 -41 -19 -73 -18 -166
4 -201 12 -177 -93 -288 -51 -55 -107 -126 -124 -159 -55 -102 -66 -238 -37
-449 29 -211 86 -287 212 -285 52 0 57 -2 96 -42 60 -64 137 -191 151 -251 11
-48 21 -70 43 -104 18 -27 67 -31 128 -10 42 14 89 21 160 22 87 1 105 4 124
21 77 69 72 189 -16 410 -43 108 -48 128 -49 200 0 73 4 89 42 177 47 107 79
255 69 313 -9 46 -63 106 -130 144 -28 17 -62 41 -76 53 -14 13 -41 36 -62 51
-58 44 -71 83 -66 196 4 87 8 102 42 166 69 129 57 233 -30 270 -51 21 -70 19
-141 -14z m107 -117 c0 -14 -15 -55 -34 -92 -48 -93 -59 -145 -54 -259 3 -75
9 -108 26 -140 24 -46 124 -139 210 -195 97 -63 102 -67 102 -96 -1 -55 -29
-160 -70 -255 -47 -111 -61 -204 -41 -282 7 -26 34 -106 60 -179 55 -149 66
-200 52 -239 -10 -26 -11 -26 -99 -24 -69 1 -97 -2 -131 -18 -42 -19 -44 -19
-57 0 -8 10 -14 33 -14 50 0 36 -107 216 -166 279 -44 47 -112 78 -162 75 -46
-3 -65 7 -86 49 -26 50 -49 241 -44 362 6 133 20 161 140 288 123 129 128 141
128 331 0 135 3 160 20 197 30 61 98 134 144 155 59 26 76 24 76 -7z"/>
<path d="M18685 12201 c-97 -25 -150 -86 -234 -267 -73 -157 -91 -219 -91
-320 0 -56 -8 -94 -39 -185 -25 -70 -44 -148 -50 -204 -11 -96 -27 -146 -97
-295 -33 -73 -51 -131 -74 -245 -52 -256 -46 -244 -148 -309 -48 -30 -107 -76
-132 -101 -25 -26 -61 -55 -81 -65 -56 -29 -132 -104 -184 -180 -28 -42 -72
-90 -106 -116 -67 -52 -93 -99 -114 -209 -14 -73 -59 -175 -76 -175 -15 0 -26
64 -16 95 30 96 37 139 37 223 0 71 4 101 19 130 42 83 62 174 72 337 12 196
19 245 69 460 72 314 76 433 17 548 -53 104 -143 132 -224 71 -45 -34 -173
-283 -229 -446 -26 -73 -64 -173 -86 -223 -75 -169 -90 -207 -102 -266 -6 -32
-14 -61 -18 -64 -3 -3 -18 29 -32 72 -45 136 -103 186 -210 182 -35 -1 -68 1
-75 5 -20 13 -42 77 -78 236 -54 237 -97 316 -199 366 -88 43 -172 24 -211
-49 -14 -26 -18 -61 -19 -182 -2 -132 -18 -307 -30 -326 -2 -4 3 -96 11 -205
20 -256 10 -314 -70 -439 -18 -29 -36 -61 -39 -72 -4 -12 -13 -26 -21 -33 -11
-9 -18 -1 -39 40 -14 27 -36 69 -50 93 -31 54 -42 95 -61 245 -11 83 -26 148
-45 197 -45 113 -59 180 -79 382 -20 196 -29 247 -61 350 -13 44 -20 107 -25
225 -9 255 -29 336 -95 392 -83 69 -187 36 -275 -88 -65 -93 -74 -116 -126
-324 -26 -107 -55 -202 -64 -212 -11 -12 -38 -19 -87 -24 -132 -12 -165 -52
-268 -316 -124 -316 -125 -327 -84 -485 14 -55 32 -129 39 -164 l14 -64 -60
-205 c-68 -233 -117 -358 -195 -501 -70 -128 -84 -169 -84 -250 0 -82 19 -155
65 -247 35 -71 35 -74 35 -200 0 -104 4 -137 19 -170 22 -49 61 -81 107 -90
85 -16 150 27 179 118 9 29 41 91 70 138 100 162 107 193 66 293 -31 76 -22
106 59 207 64 81 81 121 99 250 12 81 90 254 124 274 19 12 14 15 107 -59 85
-68 112 -127 195 -415 84 -294 91 -316 125 -365 15 -22 43 -82 63 -134 65
-167 121 -231 205 -231 56 0 84 12 125 55 67 69 81 168 53 363 -34 226 -46
531 -21 539 6 1 28 -25 50 -60 l40 -62 5 -150 c4 -122 9 -157 25 -190 47 -96
141 -148 226 -125 111 30 205 219 171 343 -8 29 -7 49 4 85 15 48 20 216 9
268 -4 16 -18 61 -32 100 -13 39 -23 86 -21 104 l3 34 74 -63 c42 -37 90 -90
112 -125 21 -34 56 -88 79 -121 70 -100 227 -403 262 -504 44 -127 77 -177
134 -202 33 -15 56 -19 84 -14 82 14 110 62 134 229 8 54 18 102 24 108 5 5
15 -21 25 -71 18 -92 53 -165 104 -222 47 -52 100 -83 204 -118 46 -15 116
-44 155 -64 38 -20 94 -42 124 -48 73 -16 215 -7 263 15 52 26 127 104 173
183 l38 65 27 -131 c35 -170 52 -212 112 -278 125 -136 247 -155 358 -56 99
90 118 179 79 374 -27 137 -64 252 -130 410 -27 65 -55 140 -61 166 -7 30 -11
136 -10 278 0 126 -4 277 -9 336 -7 73 -7 131 0 185 11 81 81 361 145 584 57
197 52 280 -26 401 -18 28 -32 66 -35 95 -9 75 29 264 92 458 72 220 74 297
11 364 -43 47 -127 70 -192 53z m116 -128 c23 -27 13 -110 -30 -234 -91 -266
-125 -474 -95 -584 3 -11 25 -51 47 -90 59 -97 57 -139 -17 -400 -118 -420
-138 -528 -124 -700 9 -107 10 -174 9 -400 -1 -204 8 -256 77 -420 89 -210
143 -408 143 -522 1 -126 -96 -207 -189 -159 -44 23 -119 110 -131 152 -7 22
-27 117 -46 211 -19 95 -41 186 -50 203 -17 32 -58 49 -83 33 -9 -5 -42 -61
-74 -125 -62 -123 -117 -195 -170 -221 -25 -12 -55 -15 -126 -12 -86 4 -98 7
-180 48 -48 25 -117 54 -154 65 -84 26 -112 41 -166 87 -65 56 -72 78 -84 253
l-11 157 47 117 c25 64 46 129 46 145 1 59 28 107 94 166 36 32 90 94 120 137
40 57 71 88 118 119 35 23 86 63 113 90 28 27 82 68 120 91 127 76 141 98 180
280 49 229 57 260 92 333 66 137 93 219 103 314 6 60 22 125 45 190 25 67 37
122 41 173 9 141 14 162 70 288 90 200 117 232 200 232 36 0 56 -5 65 -17z
m-3474 -335 c19 -46 24 -83 28 -210 7 -201 12 -246 30 -299 27 -74 43 -167 59
-339 17 -179 41 -294 81 -392 16 -38 34 -116 46 -198 26 -178 33 -202 85 -290
76 -127 77 -137 79 -465 2 -207 7 -330 20 -430 35 -283 35 -308 1 -360 -52
-79 -109 -23 -180 176 -9 26 -31 68 -48 94 -31 46 -64 146 -142 430 -51 184
-90 270 -152 330 -113 110 -182 165 -205 165 -40 0 -94 -45 -144 -121 -66 -99
-102 -190 -119 -302 -14 -94 -16 -99 -71 -169 -108 -138 -123 -195 -80 -302
32 -79 35 -68 -60 -221 -31 -49 -59 -101 -61 -115 -3 -14 -16 -38 -29 -54 -23
-29 -24 -29 -49 -12 -28 18 -28 16 -26 189 1 97 0 100 -44 196 -81 172 -79
231 12 396 93 169 124 251 237 630 15 50 28 100 30 113 4 35 -19 154 -50 261
-35 121 -31 163 30 312 26 63 58 145 71 183 26 74 63 145 89 166 8 7 49 16 91
20 49 5 85 14 102 27 42 30 77 115 117 288 44 187 71 250 135 317 64 66 87 64
117 -14z m2021 -451 c30 -32 46 -116 38 -206 -4 -42 -27 -166 -52 -276 -48
-212 -73 -382 -74 -505 0 -95 -22 -196 -57 -268 -23 -50 -28 -74 -33 -187 -6
-105 -11 -139 -30 -180 -22 -47 -22 -55 -12 -118 17 -97 15 -206 -7 -332 -10
-60 -22 -131 -25 -157 -8 -56 -26 -74 -55 -58 -26 13 -44 47 -82 158 -34 97
-181 380 -246 476 -23 33 -61 93 -84 131 -25 43 -73 99 -121 145 -60 56 -92
97 -127 159 -55 100 -70 112 -108 89 -38 -23 -44 -52 -46 -208 -1 -123 1 -142
26 -212 34 -99 40 -188 18 -303 -12 -59 -15 -100 -9 -120 13 -47 9 -97 -11
-140 -37 -80 -98 -109 -142 -69 -42 38 -49 67 -49 196 0 68 -4 138 -10 157 -5
19 -32 69 -60 111 -58 88 -76 164 -68 280 5 56 12 76 57 150 92 151 107 236
86 490 -13 168 -13 187 5 300 6 41 12 137 12 212 0 156 6 174 56 163 75 -16
114 -92 163 -312 33 -152 57 -220 93 -268 32 -41 70 -53 152 -47 58 4 62 2 81
-25 11 -15 33 -66 48 -113 55 -170 151 -330 198 -330 22 0 26 19 31 168 6 145
33 283 67 341 30 51 85 187 136 336 24 72 64 164 88 206 24 42 51 93 60 114
18 45 43 75 60 75 6 0 21 -10 33 -23z"/>
<path d="M18105 9990 c-22 -10 -67 -44 -100 -75 -33 -31 -85 -68 -115 -82 -95
-42 -159 -123 -160 -201 0 -18 -12 -56 -27 -85 -23 -44 -28 -64 -27 -127 1
-88 16 -130 70 -190 107 -119 254 -120 352 -4 22 27 65 77 94 112 131 155 152
208 152 372 -1 166 -47 266 -132 290 -50 14 -61 13 -107 -10z m85 -100 c30
-16 44 -77 44 -190 0 -126 -14 -163 -96 -255 -29 -34 -70 -84 -91 -112 -20
-28 -48 -58 -62 -67 -82 -54 -205 40 -205 155 0 17 14 61 30 99 17 38 30 83
30 102 0 49 23 74 103 114 39 20 96 60 126 89 48 44 86 73 99 75 2 0 12 -4 22
-10z"/>
<path d="M15046 11009 c-20 -16 -35 -51 -67 -152 -23 -73 -66 -181 -95 -242
-87 -180 -110 -330 -59 -380 28 -29 69 -32 160 -10 61 15 67 13 105 -25 19
-19 74 -40 107 -40 102 0 140 153 83 338 -21 68 -22 85 -15 221 6 125 4 153
-10 187 -42 101 -146 153 -209 103z m95 -126 c11 -12 14 -57 14 -187 0 -150 3
-179 23 -240 27 -83 30 -176 6 -176 -9 0 -33 14 -54 30 -45 36 -107 47 -169
30 -23 -6 -46 -9 -49 -5 -14 14 22 127 77 244 33 69 67 153 76 186 23 80 45
135 55 135 4 0 14 -7 21 -17z"/>
<path d="M6493 12191 c-38 -7 -80 -30 -145 -82 l-27 -22 -61 23 c-139 52 -221
-24 -207 -192 3 -38 16 -100 28 -138 l23 -70 -23 -98 c-48 -199 -54 -237 -47
-275 8 -45 53 -98 108 -129 l40 -23 -5 -80 c-3 -57 -13 -100 -32 -145 -112
-265 -118 -283 -123 -367 -4 -74 -2 -88 22 -135 14 -29 55 -87 90 -128 l65
-75 1 -115 c0 -63 -7 -176 -16 -250 -19 -160 -15 -228 20 -332 24 -73 25 -82
14 -162 -14 -109 -8 -137 54 -253 l50 -96 -7 -312 c-7 -275 -6 -318 9 -369 40
-136 123 -216 225 -216 50 0 57 3 91 39 66 70 75 123 72 431 -1 163 2 285 9
318 6 29 30 99 54 156 106 254 144 430 116 543 -7 26 -35 98 -62 159 -31 72
-49 126 -49 150 0 51 31 115 119 248 39 59 74 119 77 133 4 13 4 55 2 91 -8
106 -47 165 -154 235 -87 57 -115 128 -116 295 -1 71 7 122 45 277 25 105 49
215 52 245 9 73 -8 163 -53 279 -35 92 -35 95 -24 162 25 143 9 211 -58 255
-41 27 -110 37 -177 25z m123 -122 c14 -12 15 -25 8 -94 -15 -140 -11 -173 31
-276 53 -129 54 -214 3 -414 -52 -202 -61 -251 -60 -339 2 -213 51 -319 187
-401 56 -34 81 -75 88 -144 4 -40 -1 -52 -66 -149 -100 -153 -129 -213 -134
-286 -6 -66 -9 -57 95 -301 47 -113 28 -229 -87 -515 -75 -185 -86 -250 -76
-445 11 -244 11 -263 -2 -328 -20 -95 -31 -117 -62 -117 -35 0 -73 40 -102
105 -21 46 -22 62 -19 215 2 91 4 242 4 335 l1 170 -54 103 -53 104 8 76 c11
111 8 155 -21 233 -29 82 -31 131 -10 309 20 164 21 337 2 382 -8 18 -42 65
-75 103 -34 39 -69 85 -78 104 -33 69 -14 163 72 348 71 153 94 308 56 383
-10 21 -40 50 -74 73 -70 46 -71 53 -28 211 43 160 47 208 20 281 -24 67 -36
192 -21 214 8 12 15 12 53 -2 102 -38 151 -30 224 36 22 19 50 37 64 40 38 7
89 1 106 -14z"/>
<path d="M8715 12085 c-79 -17 -117 -33 -233 -101 -102 -59 -173 -120 -198
-167 -9 -16 -21 -67 -29 -114 -8 -48 -20 -92 -27 -98 -7 -7 -52 -24 -100 -39
-176 -54 -256 -94 -330 -166 -94 -93 -116 -145 -127 -297 -10 -131 -18 -158
-96 -323 -57 -120 -74 -191 -74 -306 0 -83 -24 -140 -117 -278 -157 -232 -184
-292 -184 -403 0 -87 49 -153 114 -153 56 0 57 -6 20 -130 -20 -65 -37 -147
-40 -190 -5 -65 -3 -81 18 -119 37 -72 68 -82 228 -79 145 2 166 -3 190 -47
11 -21 12 -36 2 -84 -27 -130 -8 -188 97 -290 39 -38 72 -79 75 -92 3 -13 10
-72 16 -131 22 -216 70 -298 175 -298 83 0 150 62 214 195 22 44 73 150 114
235 79 165 137 244 186 255 17 3 45 -1 70 -11 27 -11 58 -15 91 -12 51 5 78
20 257 143 l88 60 180 1 c197 0 239 8 302 53 45 32 132 147 171 225 37 75 42
184 10 246 -61 119 -174 120 -307 3 l-55 -48 -77 0 -76 0 -136 83 c-215 130
-236 135 -346 75 l-68 -38 -69 23 c-125 40 -167 31 -304 -69 -38 -27 -89 -58
-114 -70 -42 -18 -48 -19 -75 -4 -42 21 -61 53 -61 101 0 53 20 101 104 242
113 190 150 274 150 346 0 92 -35 149 -146 231 -32 23 -38 33 -38 64 0 20 9
56 21 80 43 97 123 176 343 345 51 39 153 128 225 197 l131 126 0 50 c0 37 -6
58 -25 84 l-26 34 22 17 c35 29 142 57 226 59 104 2 275 17 343 30 75 14 106
26 171 70 105 70 159 153 159 242 0 106 -85 173 -234 184 -69 5 -98 0 -318
-48 -66 -15 -99 -4 -173 56 -23 19 -58 41 -78 50 -44 18 -149 18 -232 0z m210
-114 c17 -11 44 -31 60 -46 80 -72 142 -80 305 -38 178 44 318 35 348 -25 16
-30 -7 -81 -56 -129 -78 -75 -133 -95 -293 -108 -40 -3 -92 -8 -114 -10 -22
-3 -76 -5 -120 -6 -87 -2 -179 -28 -264 -75 -66 -35 -101 -73 -108 -118 -7
-43 13 -71 67 -93 l35 -15 -40 -31 c-22 -17 -71 -63 -110 -103 -38 -39 -101
-96 -140 -125 -286 -222 -345 -281 -403 -398 -31 -64 -37 -85 -37 -141 0 -73
25 -124 75 -153 70 -42 110 -97 110 -151 0 -30 -62 -155 -149 -300 -39 -65
-80 -143 -91 -173 -42 -112 -17 -226 63 -284 97 -70 165 -59 332 56 122 84
140 88 227 54 72 -29 106 -26 177 11 92 49 128 43 266 -50 130 -88 185 -109
280 -109 83 -1 134 19 197 77 99 90 146 84 149 -21 3 -79 -97 -244 -176 -289
-38 -22 -48 -23 -216 -20 -210 3 -213 3 -367 -105 -162 -114 -164 -115 -247
-86 -41 13 -56 14 -93 4 -117 -31 -172 -111 -383 -558 -37 -78 -81 -126 -111
-121 -37 5 -55 60 -73 216 -8 79 -22 156 -29 170 -15 29 -94 112 -106 112 -4
0 -20 18 -35 40 -25 36 -27 45 -21 92 20 160 21 159 -16 213 -23 35 -48 58
-86 77 -50 25 -56 26 -177 21 -91 -4 -129 -2 -140 7 -39 33 6 232 96 422 66
139 70 169 28 201 -35 25 -51 19 -128 -53 -82 -77 -101 -78 -101 -7 1 70 33
145 107 248 91 126 162 247 178 304 8 27 16 98 18 157 5 104 6 109 57 215 80
166 100 232 109 359 9 127 23 164 88 229 56 57 114 87 277 141 176 59 196 79
217 224 11 77 15 88 48 121 67 66 246 161 346 182 56 12 141 6 170 -12z"/>
</g>
</svg>
